<?xml version="1.0" encoding="utf-8"?><svg xmlns="http://www.w3.org/2000/svg" xmlns:xlink="http://www.w3.org/1999/xlink"><symbol viewBox="0 0 11 8" id="checked" xmlns="http://www.w3.org/2000/svg"><defs><path id="aa" d="M6 9H0V0h12v9H6z" fill="currentColor"/></defs><path d="M.126 4.4A.422.422 0 0 1 0 4.12c0-.08.041-.2.126-.28l.593-.56c.17-.16.423-.16.593 0l.041.041 2.328 2.36c.085.08.211.08.296 0L9.646.12h.043a.43.43 0 0 1 .593 0l.591.56c.17.16.17.4 0 .56L4.105 7.882A.396.396 0 0 1 3.807 8a.393.393 0 0 1-.295-.119L.21 4.519.126 4.4z" fill="currentColor" fill-rule="evenodd"/></symbol></svg>