<?xml version="1.0" encoding="UTF-8" standalone="no"?>
<svg width="11px" height="8px" viewBox="0 0 11 8" version="1.1" xmlns="http://www.w3.org/2000/svg" xmlns:xlink="http://www.w3.org/1999/xlink">
    <!-- Generator: sketchtool 39.1 (31720) - http://www.bohemiancoding.com/sketch -->
    <title>6B90DFE4-FB8C-401A-875E-E41E9EF29208</title>
    <desc>Created with sketchtool.</desc>
    <defs>
        <polygon id="path-1" points="6 9 0 9 0 3.00511495e-15 12 0 12 9 6 9"></polygon>
    </defs>
    <g id="index" stroke="none" stroke-width="1" fill="none" fill-rule="evenodd">
        <g id="Login" transform="translate(-916.000000, -525.000000)">
            <g id="Screen_2" transform="translate(772.000000, 89.000000)">
                <g id="card">
                    <g id="choise" transform="translate(29.000000, 430.000000)">
                        <g id="checked-(1)" transform="translate(115.000000, 5.000000)">
                            <mask id="mask-2" fill="white">
                                <use xlink:href="#path-1"></use>
                            </mask>
                            <g id="Clip-2"></g>
                            <path d="M0.125871436,5.40027502 C0.0412519833,5.32027002 0,5.19876242 0,5.11875742 C0,5.03875242 0.0412519833,4.91974498 0.125871436,4.83973998 L0.718736478,4.27920495 C0.888504255,4.11869492 1.14236261,4.11869492 1.31160152,4.27920495 L1.35338237,4.32020751 L3.68147507,6.67935496 C3.76609452,6.75985999 3.89196596,6.75985999 3.97711428,6.67935496 L9.64555988,1.11850741 L9.68892735,1.11850741 C9.85869513,0.960497531 10.1125535,0.960497531 10.2817924,1.11850741 L10.8730708,1.67904244 C11.0423097,1.83955247 11.0423097,2.07956747 10.8730708,2.23957747 L4.10510121,8.88099256 C4.02048175,8.96099756 3.93533343,9 3.80734651,9 C3.68147507,9 3.59685562,8.96099756 3.51223617,8.88099256 L0.210490889,5.51928246 L0.125871436,5.40027502 Z" id="Fill-1" fill="#FFFFFF" mask="url(#mask-2)"></path>
                        </g>
                    </g>
                </g>
            </g>
        </g>
    </g>
</svg>